SRRun01_grf
version=1
nRows=27
nColumns=19
inDegrees=no
endheader
time	ground_force_r_vx	ground_force_r_vy	ground_force_r_vz	ground_force_r_px	ground_force_r_py	ground_force_r_pz	ground_force_r_mx	ground_force_r_my	ground_force_r_mz	ground_force_l_vx	ground_force_l_vy	ground_force_l_vz	ground_force_l_px	ground_force_l_py	ground_force_l_pz	ground_force_l_mx	ground_force_l_my	ground_force_l_mz
    147.49900000	      0.00000000	      0.00000000	      0.00000000	      0.00000000	      0.00000000	      0.00000000	      0.00000000	      0.00000000	      0.00000000	    113.35466904	   1107.35129102	     32.23450118	      0.99872375	      0.00000000	     -0.31383763	      0.00001582	    -10.79819175	      0.00003910
    147.50000000	      0.00000000	      0.00000000	      0.00000000	      0.00000000	      0.00000000	      0.00000000	      0.00000000	      0.00000000	      0.00000000	    115.74244512	   1097.42622338	     30.15330952	      0.99624220	      0.00000000	     -0.31398584	      0.00001485	    -16.24979686	      0.00003762
    147.50100000	      0.00000000	      0.00000000	      0.00000000	      0.00000000	      0.00000000	      0.00000000	      0.00000000	      0.00000000	      0.00000000	    115.68611446	   1087.22833876	     27.01303938	      0.99393475	      0.00000000	     -0.31412474	      0.00001401	    -20.22205093	      0.00003656
    147.50200000	      0.00000000	      0.00000000	      0.00000000	      0.00000000	      0.00000000	      0.00000000	      0.00000000	      0.00000000	      0.00000000	    113.54031191	   1076.81231119	     22.99885577	      0.99180614	      0.00000000	     -0.31422731	      0.00001333	    -22.37827621	      0.00003588
    147.50300000	      0.00000000	      0.00000000	      0.00000000	      0.00000000	      0.00000000	      0.00000000	      0.00000000	      0.00000000	      0.00000000	    109.84757217	   1066.22050405	     18.37923839	      0.98984178	      0.00000000	     -0.31427055	      0.00001281	    -22.54621524	      0.00003553
    147.50400000	      0.00000000	      0.00000000	      0.00000000	      0.00000000	      0.00000000	      0.00000000	      0.00000000	      0.00000000	      0.00000000	    105.27349589	   1055.47315492	     13.48025182	      0.98800870	      0.00000000	     -0.31423869	      0.00001245	    -20.73403019	      0.00003546
    147.50500000	      0.00000000	      0.00000000	      0.00000000	      0.00000000	      0.00000000	      0.00000000	      0.00000000	      0.00000000	      0.00000000	    100.53305330	   1044.56456284	      8.65557357	      0.98625990	      0.00000000	     -0.31412541	      0.00001224	    -17.12920863	      0.00003562
    147.50600000	      0.00000000	      0.00000000	      0.00000000	      0.00000000	      0.00000000	      0.00000000	      0.00000000	      0.00000000	      0.00000000	     96.31588426	   1033.46574988	      4.25537579	      0.98454124	      0.00000000	     -0.31393447	      0.00001216	    -12.08038104	      0.00003595
    147.50700000	      0.00000000	      0.00000000	      0.00000000	      0.00000000	      0.00000000	      0.00000000	      0.00000000	      0.00000000	      0.00000000	     93.21793023	   1022.13233732	      0.59674521	      0.98279965	      0.00000000	     -0.31367881	      0.00001217	     -6.06391828	      0.00003642
    147.50800000	      0.00000000	      0.00000000	      0.00000000	      0.00000000	      0.00000000	      0.00000000	      0.00000000	      0.00000000	      0.00000000	     91.68563910	   1010.51534057	     -2.06231164	      0.98099073	      0.00000000	     -0.31337840	      0.00001225	      0.36121025	      0.00003696
    147.50900000	      0.00000000	      0.00000000	      0.00000000	      0.00000000	      0.00000000	      0.00000000	      0.00000000	      0.00000000	      0.00000000	     91.97746176	    998.57236754	     -3.54376984	      0.97908457	      0.00000000	     -0.31305731	      0.00001238	      6.60571046	      0.00003753
    147.51000000	      0.00000000	      0.00000000	      0.00000000	      0.00000000	      0.00000000	      0.00000000	      0.00000000	      0.00000000	      0.00000000	     94.14555695	    986.27703720	     -3.76417571	      0.97706877	      0.00000000	     -0.31274074	      0.00001253	     12.10421420	      0.00003808
    147.51100000	      0.00000000	      0.00000000	      0.00000000	      0.00000000	      0.00000000	      0.00000000	      0.00000000	      0.00000000	      0.00000000	     98.03864462	    973.62500862	     -2.74188089	      0.97494823	      0.00000000	     -0.31245238	      0.00001268	     16.36637458	      0.00003858
    147.51200000	      0.00000000	      0.00000000	      0.00000000	      0.00000000	      0.00000000	      0.00000000	      0.00000000	      0.00000000	      0.00000000	    103.32496008	    960.63568625	     -0.59621763	      0.97274188	      0.00000000	     -0.31221229	      0.00001280	     19.02016773	      0.00003898
    147.51300000	      0.00000000	      0.00000000	      0.00000000	      0.00000000	      0.00000000	      0.00000000	      0.00000000	      0.00000000	      0.00000000	    109.53247569	    947.34942776	      2.46142795	      0.97047684	      0.00000000	     -0.31203534	      0.00001289	     19.84361145	      0.00003926
    147.51400000	      0.00000000	      0.00000000	      0.00000000	      0.00000000	      0.00000000	      0.00000000	      0.00000000	      0.00000000	      0.00000000	    116.10210380	    933.82090214	      6.14385637	      0.96818100	      0.00000000	     -0.31193017	      0.00001295	     18.78226385	      0.00003941
    147.51500000	      0.00000000	      0.00000000	      0.00000000	      0.00000000	      0.00000000	      0.00000000	      0.00000000	      0.00000000	      0.00000000	    122.44852653	    920.11008964	     10.11017719	      0.96587571	      0.00000000	     -0.31189881	      0.00001296	     15.95124361	      0.00003941
    147.51600000	      0.00000000	      0.00000000	      0.00000000	      0.00000000	      0.00000000	      0.00000000	      0.00000000	      0.00000000	      0.00000000	    128.02264871	    906.27312032	     13.99212251	      0.96357035	      0.00000000	     -0.31193696	      0.00001295	     11.62197981	      0.00003928
    147.51700000	      0.00000000	      0.00000000	      0.00000000	      0.00000000	      0.00000000	      0.00000000	      0.00000000	      0.00000000	      0.00000000	    132.36946084	    892.35531650	     17.42281328	      0.96126055	      0.00000000	     -0.31203496	      0.00001292	      6.19532251	      0.00003902
    147.51800000	      0.00000000	      0.00000000	      0.00000000	      0.00000000	      0.00000000	      0.00000000	      0.00000000	      0.00000000	      0.00000000	    135.17536132	    878.38807284	     20.06609535	      0.95893037	      0.00000000	     -0.31217904	      0.00001287	      0.16386213	      0.00003866
    147.51900000	      0.00000000	      0.00000000	      0.00000000	      0.00000000	      0.00000000	      0.00000000	      0.00000000	      0.00000000	      0.00000000	    136.29980495	    864.38983591	     21.64424341	      0.95655795	      0.00000000	     -0.31235265	      0.00001281	     -5.93289294	      0.00003821
    147.52000000	      0.00000000	      0.00000000	      0.00000000	      0.00000000	      0.00000000	      0.00000000	      0.00000000	      0.00000000	      0.00000000	    135.78759901	    850.37015214	     21.96153140	      0.95412251	      0.00000000	     -0.31253760	      0.00001275	    -11.55649134	      0.00003769
    147.52100000	      0.00000000	      0.00000000	      0.00000000	      0.00000000	      0.00000000	      0.00000000	      0.00000000	      0.00000000	      0.00000000	    133.86019737	    836.33502348	     20.92123808	      0.95161091	      0.00000000	     -0.31271506	      0.00001268	    -16.21666603	      0.00003711
    147.52200000	      0.00000000	      0.00000000	      0.00000000	      0.00000000	      0.00000000	      0.00000000	      0.00000000	      0.00000000	      0.00000000	    130.88673582	    822.29175848	     18.53431041	      0.94902169	      0.00000000	     -0.31286643	      0.00001260	    -19.51378127	      0.00003649
    147.52300000	      0.00000000	      0.00000000	      0.00000000	      0.00000000	      0.00000000	      0.00000000	      0.00000000	      0.00000000	      0.00000000	    127.33804784	    808.25198547	     14.91897347	      0.94636600	      0.00000000	     -0.31297434	      0.00001251	    -21.17310273	      0.00003584
    147.52400000	      0.00000000	      0.00000000	      0.00000000	      0.00000000	      0.00000000	      0.00000000	      0.00000000	      0.00000000	      0.00000000	    123.72913287	    794.23215740	     10.29160999	      0.94366549	      0.00000000	     -0.31302357	      0.00001238	    -21.06799516	      0.00003517
    147.52500000	      0.00000000	      0.00000000	      0.00000000	      0.00000000	      0.00000000	      0.00000000	      0.00000000	      0.00000000	      0.00000000	    120.55712927	    780.25151440	      4.94991083	      0.94094796	      0.00000000	     -0.31300213	      0.00001221	    -19.23006077	      0.00003449
